<svg xmlns="http://www.w3.org/2000/svg" width="1920" height="1080" viewBox="0 0 1920 1080"><path fill="#2AB6F4" d="M1579 672.7c-5.9-2.3-12-3.6-18.1-4.3 1.8-30.5-14.7-60.5-44-74.3-27.6-13.1-59-8.4-81.3 9.7-.9-.5-2-.9-2.9-1.4.7-5 .9-9.9.9-14.9 0-66.6-54-120.6-120.6-120.6-53.5 0-98.9 35-114.7 83.4-13.1-6.6-28-10.2-43.6-10.2-45.2 0-83.1 30.5-94.6 72.1-7.5-35-38.4-61.2-75.7-61.2-34.3 0-63.5 22.4-73.4 53.3-8.4-4.3-17.8-6.6-28-6.6-34.3 0-62.3 27.6-63 61.9-28.5 10.8-48.3 34.6-48.3 62.1 0 34.3 30.7 62.8 70.7 67.5 9 9.9 20.6 18.3 33.9 24.2-.5 3.4-.7 6.6-.7 10.2 0 44.7 36.4 81.1 81.1 81.1 35.9 0 66.6-23.5 77-56 8.8 4.3 18.7 6.8 29.4 6.8 21 0 39.8-9.7 51.7-25.1 13.8 24.2 39.8 40.7 69.6 40.7 25.5 0 48.3-12 63-30.7h34.1c9.9 24.2 33.9 41.3 61.7 41.3 14.2 0 27.3-4.3 37.9-12 9.3 12.4 21.5 22.8 36.4 30 48.3 22.8 105.9 2.3 128.8-46.1 4.7-10.2 7.7-20.8 8.8-31.4 29.8-1.4 57.6-20.3 68.7-50.1 15.3-40.2-5-84.5-44.8-99.4z"/><path fill="#006BBA" d="M1264.6 761c-18.1-19.4-43.6-30.5-70-30.5-23.9 0-47 9-64.6 25.3l-2.7 2.5-2.3-2.7c-8.4-9.7-21.2-14.2-34.3-10.6l-2.5.7-1.4-2.3c-9.5-15.8-26.2-25.3-44.7-25.3-16.5 0-32.3 7.9-42.2 21.5l-5.6-4.1c11.1-15.1 29.1-24.2 47.9-24.2 20.1 0 38.4 9.9 49.5 26.4 13.6-2.7 27.1 1.6 36.6 10.8 18.5-16 42.2-24.8 66.9-24.8 28.5 0 55.8 12 75.2 32.8l-5.8 4.5z"/><path fill="#B4E5F9" d="M1434.4 466.7c0-33-26.7-59.6-59.6-59.6-2 0-4.1 0-6.3.2V405c0-30.3-24.6-54.9-54.9-54.9-23 0-42.9 14.2-50.8 34.3-6.3-35-31.8-65.1-67.3-82.2.7-5.2 1.1-10.6 1.1-16 0-63.7-51.5-115.2-115.2-115.2-51 0-94.2 33.2-109.3 79.3-10.8-4.5-22.6-7.2-35.2-7.2-47.2 0-85.8 36.6-89.4 82.7-11.7 4.1-22.8 10.2-32.5 17.8 23 12.6 38.6 37 39.3 65.1 15.4 5.9 28.7 14.9 38.6 26-1.8 8.6-2.9 17.6-2.9 26.9 0 48.8 27.8 91 68.4 111.8 11.1 50.4 55.8 88.1 109.3 88.1 58.1 0 105.7-44 111.4-100.7 1.8 0 3.4.2 5.2.2 8.1 0 15.8-1.1 23.3-3.2.5.2.9.2 1.4.5.2-.2.2-.7.5-.9 14.5-4.3 27.3-12 37.7-22.1 15.1 16.3 36.8 26.4 60.8 26.4 28.2 0 53.1-14 68.2-35.5 32.3-.8 58.2-27 58.2-59.5z"/><path fill="#004999" d="M1535.2 416.5h-129.4c-5.2 0-9.3 4.1-9.3 9.3v166.5c0 5 4.1 9.3 9.3 9.3h129.4c5.2 0 9.3-4.1 9.3-9.3V425.8c-.1-5.2-4.4-9.3-9.3-9.3z"/><path fill="#008CDB" d="M1535.2 416.5c5.2 0 9.3 4.1 9.3 9.3v166.5c0 5-4.1 9.3-9.3 9.3h-129.4c-5.2 0-9.3-4.1-9.3-9.3V425.8c0-5.2 4.1-9.3 9.3-9.3h129.4m0-6.7h-129.4c-8.8 0-15.8 7.2-15.8 15.8V592c0 8.8 7.2 15.8 15.8 15.8h129.4c8.8 0 15.8-7.2 15.8-15.8V425.6c0-8.6-7-15.8-15.8-15.8z"/><circle fill="#2AB6F4" cx="1470.4" cy="562.2" r="7.9"/><path fill="#2AB6F4" d="M1420.9 467.1h98.9v14.7h-98.9zM1420.9 442.5h98.9v14.7h-98.9z"/><path fill="#82D8F9" d="M1052 497.4c-.2-19.9-16.5-35.7-36.4-35.7-5.9 0-11.3 1.4-16 3.8-5.9-17.8-22.6-30.7-42.5-30.7-24.6 0-44.5 19.9-44.5 44.5v4.3c0-33.2-23.9-61.9-58.3-74.8-.7-41.3-34.3-74.5-75.9-74.5-12.2 0-23.5 2.9-33.7 7.9-12.2-37.3-47.2-64.4-88.5-64.4-51.5 0-93.1 41.6-93.1 93.1 0 3.8.2 7.7.7 11.5-32.3 14.2-55.6 40.4-61 71.6-6.8-17.2-23.5-29.1-43.1-29.1-25.5 0-46.3 20.8-46.3 46.3 0 2 .2 3.8.5 5.6-18.5 8.1-31.2 24.2-31.2 42.9 0 26.9 26.2 48.6 58.7 48.6h96.5c10.2 0 19.7-2.5 27.3-6.8 3.8 30 26.2 58.1 59.4 69.8 10.6 3.6 21.2 5.4 31.6 5.4 24.6 0 47.4-9.9 62.6-26.9 7.5 26.2 31.6 45.4 60.1 45.4 31.4 0 57.4-23 61.9-53.3 13.1 26.4 40.4 44.5 72.1 44.5 43.1 0 78.6-34.1 80.2-77 1.4.9 2.5 1.8 3.6 2.9h35.5c26.4 0 47.7-17.6 47.7-39.3-.1-15.5-11.4-29.3-27.9-35.6z"/><path fill="#008CDB" d="M1181.2 402.1c-12.4-13.3-30-21.2-48.3-21.2-16.7 0-32.5 6.1-44.7 17.4l-1.8 1.8-1.6-1.8c-5.6-6.8-14.7-9.7-23.7-7.5l-1.8.5-.9-1.6c-6.6-10.8-18.3-17.4-30.9-17.4-11.5 0-22.4 5.4-29.1 14.9l-3.8-2.9c7.7-10.6 20.1-16.7 33-16.7 13.8 0 26.4 6.8 34.1 18.3 9.5-2 18.7 1.1 25.3 7.5 12.9-11.1 29.1-17.2 46.3-17.2 19.7 0 38.6 8.4 52 22.6l-4.1 3.3z"/><path fill="#004999" d="M583.8 363.2H435.1c-5.9 0-10.6 4.7-10.6 10.6v190.9c0 5.9 4.7 10.6 10.6 10.6h148.6c5.9 0 10.6-4.7 10.6-10.6V373.8c.1-5.8-4.7-10.6-10.5-10.6z"/><path fill="#008CDB" d="M583.8 363.2c5.9 0 10.6 4.7 10.6 10.6v190.9c0 5.9-4.7 10.6-10.6 10.6H435.1c-5.9 0-10.6-4.7-10.6-10.6V373.8c0-5.9 4.7-10.6 10.6-10.6h148.7m0-7.7H435.1c-10.2 0-18.3 8.1-18.3 18.3v190.9c0 10.2 8.1 18.3 18.3 18.3h148.6c10.2 0 18.3-8.1 18.3-18.3V373.8c.1-10.1-8.1-18.3-18.2-18.3z"/><circle fill="#2AB6F4" cx="509.4" cy="530.4" r="9"/><path fill="#2AB6F4" d="M452.8 421.3h113.6v16.9H452.8zM452.8 393h113.6v16.9H452.8z"/><path fill="#004999" d="M476.5 429.6H311.6c-6.6 0-11.7 5.2-11.7 11.7v211.9c0 6.6 5.2 11.7 11.7 11.7h164.9c6.6 0 11.7-5.2 11.7-11.7V441.4c0-6.6-5.2-11.8-11.7-11.8z"/><path fill="#008CDB" d="M476.5 429.6c6.6 0 11.7 5.2 11.7 11.7v211.9c0 6.6-5.2 11.7-11.7 11.7H311.6c-6.6 0-11.7-5.2-11.7-11.7V441.4c0-6.6 5.2-11.7 11.7-11.7h164.9m0-8.7H311.6c-11.1 0-20.3 9-20.3 20.3v211.9c0 11.1 9 20.3 20.3 20.3h164.9c11.1 0 20.3-9 20.3-20.3V441.4c0-11.1-9-20.4-20.3-20.4z"/><circle fill="#2AB6F4" cx="394" cy="615.1" r="9.9"/><path fill="#2AB6F4" d="M331 494.2h126v18.7H331z"/><g><path fill="#2AB6F4" d="M331 462.8h126v18.7H331z"/></g><g><path fill="#004999" d="M589.6 402.1v157c0 4.7 3.8 8.8 8.8 8.8h122c4.7 0 8.8-3.8 8.8-8.8v-157c0-4.7-3.8-8.8-8.8-8.8h-122c-4.9 0-8.8 4-8.8 8.8z"/><path fill="#008CDB" d="M720.4 570.8h-122c-6.6 0-12-5.4-12-12V402.1c0-6.6 5.4-12 12-12h122c6.6 0 12 5.4 12 12v157c-.2 6.5-5.4 11.7-12 11.7zM598.2 396.4c-3.2 0-5.6 2.5-5.6 5.6v157c0 3.2 2.5 5.6 5.6 5.6h122c3.2 0 5.6-2.5 5.6-5.6V402c0-3.2-2.5-5.6-5.6-5.6h-122z"/><circle fill="#2AB6F4" cx="659" cy="530.8" r="7.5"/><path fill="#2AB6F4" d="M612.2 441.2h93.3v14h-93.3z"/><g><path fill="#2AB6F4" d="M612.2 417.9h93.3v14h-93.3z"/></g></g><g><path fill="#004999" d="M1113 493.6l-7.9 57.4c0 .7.2 1.1.9 1.1l117 16.3c.7 0 1.1-.2 1.1-.9l7.9-57.4c0-.7-.2-1.1-.9-1.1l-117-16.3c-.4-.3-.9.2-1.1.9zm17.9 56l-2.5-.5c-.7 0-1.1-.7-.9-1.1l6.3-45.6c0-.7.7-1.1 1.1-.9l2.5.5c.7 0 1.1.7.9 1.1l-6.3 45.6c0 .7-.5.9-1.1.9zm23.9 3.4l-2.5-.5c-.7 0-1.1-.7-.9-1.1l6.3-45.6c0-.7.7-1.1 1.1-.9l2.5.5c.7 0 1.1.7.9 1.1l-6.3 45.6c0 .4-.7.9-1.1.9zm23.7 3.4l-2.5-.5c-.7 0-1.1-.7-.9-1.1l6.3-45.6c0-.7.7-1.1 1.1-.9l2.5.5c.7 0 1.1.7.9 1.1l-6.3 45.6c0 .4-.4.9-1.1.9zm24 3.1l-2.5-.5c-.7 0-1.1-.7-.9-1.1l6.3-45.6c0-.7.7-1.1 1.1-.9l2.5.5c.7 0 1.1.7.9 1.1l-6.3 45.6c0 .7-.5 1.1-1.1.9z"/><path fill="#82D8F9" d="M1114.1 492.7l117.2 16.3c.7 0 1.1.7.9 1.1l-7.9 57.4c0 .5-.5.9-1.1.9h-.2l-117-16.3c-.7 0-1.1-.7-.9-1.1l7.9-57.4c.2-.7.7-.9 1.1-.9m17 56.9c.5 0 .9-.5 1.1-.9l6.3-45.6c0-.7-.2-1.1-.9-1.1l-2.5-.5h-.2c-.5 0-.9.5-1.1.9l-6.3 45.6c0 .7.2 1.1.9 1.1l2.7.5c-.2 0 0 0 0 0m23.7 3.4c.5 0 .9-.5 1.1-.9l6.3-45.6c0-.7-.2-1.1-.9-1.1l-2.5-.5h-.2c-.5 0-.9.5-1.1.9l-6.3 45.6c0 .7.2 1.1.9 1.1l2.7.5m23.9 3.4c.5 0 .9-.5 1.1-.9l6.3-45.6c0-.7-.2-1.1-.9-1.1l-2.5-.5h-.2c-.5 0-.9.5-1.1.9l-6.3 45.6c0 .7.2 1.1.9 1.1l2.7.5m24 3.1c.5 0 .9-.5 1.1-.9l6.3-45.6c0-.7-.2-1.1-.9-1.1l-2.5-.5h-.2c-.5 0-.9.5-1.1.9l-6.3 45.6c0 .7.2 1.1.9 1.1l2.7.5c-.2 0-.2 0 0 0m-88.6-72.7c-3.4 0-6.6 2.5-7 6.1l-7.9 57.4c-.5 3.8 2 7.5 5.9 7.9l117 16.3h.9c3.4 0 6.6-2.5 7-6.1l7.9-57.4c.5-3.8-2-7.5-5.9-7.9l-117-16.3h-.9z"/></g><g><path fill="#004999" d="M772.1 564.9l47.9 78.8c.5.9 1.6 1.1 2.5.7l160.6-97.8c.9-.5 1.1-1.6.7-2.5l-48.1-78.8c-.5-.9-1.6-1.1-2.5-.7l-160.4 97.8c-.9.5-1.1 1.6-.7 2.5zm78.4 51.1l-3.6 2.3c-.9.5-1.8.2-2.5-.7L806.7 555c-.5-.9-.2-1.8.7-2.5l3.6-2.3c.9-.5 1.8-.2 2.5.7l37.9 62.3c.3 1.2 0 2.3-.9 2.8zm32.8-19.9l-3.6 2.3c-.9.5-1.8.2-2.5-.7l-37.9-62.3c-.5-.9-.2-1.8.7-2.5l3.6-2.3c.9-.5 1.8-.2 2.5.7l37.9 62.3c.4.9.2 2.1-.7 2.5zm32.7-19.9l-3.6 2.3c-.9.5-1.8.2-2.5-.7L872 515.5c-.5-.9-.2-1.8.7-2.5l3.6-2.3c.9-.5 1.8-.2 2.5.7l37.9 62.3c.5 1 .2 1.9-.7 2.5zm32.8-20.1l-3.6 2.3c-.9.5-1.8.2-2.5-.7l-37.9-62.3c-.5-.9-.2-1.8.7-2.5l3.6-2.3c.9-.5 1.8-.2 2.5.7l37.9 62.3c.4 1.2 0 2.1-.7 2.5z"/><path fill="#2AB6F4" d="M772.1 563.1l.7-.7 160.6-97.8c.9-.5 1.8-.2 2.5.7l47.9 78.8c.5.7.2 1.4 0 1.8l-.7.7-160.6 97.6c-.9.5-1.8.2-2.5-.7l-47.9-78.8c-.2-.4-.2-1.1 0-1.6m79.1 52.2c.2-.5.5-1.1 0-1.8l-37.9-62.3c-.5-.9-1.6-1.1-2.5-.7l-3.6 2.3-.7.7c-.2.5-.5 1.1 0 1.8l37.9 62.3c.5.9 1.6 1.1 2.5.7l3.6-2.3c.3-.2.5-.5.7-.7m32.8-19.9c.2-.5.5-1.1 0-1.8l-38-62.3c-.5-.9-1.6-1.1-2.5-.7l-3.6 2.3-.7.7c-.2.5-.5 1.1 0 1.8l37.9 62.3c.5.9 1.6 1.1 2.5.7l3.6-2.3c.3-.2.5-.4.8-.7m32.7-19.8c.2-.5.5-1.1 0-1.8l-37.9-62.3c-.5-.9-1.6-1.1-2.5-.7l-3.6 2.3-.7.7c-.2.5-.5 1.1 0 1.8l37.9 62.3c.5.9 1.6 1.1 2.5.7l3.6-2.3.7-.7m32.5-19.9c.2-.5.5-1.1 0-1.8l-37.9-62.3c-.5-.9-1.6-1.1-2.5-.7l-3.6 2.3-.7.7c-.2.5-.5 1.1 0 1.8l37.9 62.3c.5.9 1.6 1.1 2.5.7l3.6-2.3c.5-.3.7-.5.7-.7m-181.8 4.5c-1.4 2.3-1.4 5.2 0 7.7l47.9 78.8c1.1 1.6 2.7 2.9 4.5 3.4 1.8.5 3.8.2 5.6-.9L986 551.4c1.1-.7 1.8-1.6 2.5-2.5 1.4-2.3 1.4-5.2 0-7.7l-47.9-78.8c-2-3.4-6.6-4.5-10.2-2.5l-160.6 97.8c-.8.5-1.7 1.4-2.4 2.5z"/></g><path fill="#B4E5F9" d="M928.5 711.3c-3.8-45.2-43.6-78.6-88.8-74.8-1.4 0-2.5.2-3.8.5-12.2-39.1-48.6-67.3-91.7-67.3-16 0-30.9 3.8-44.3 10.8-15.4-35.7-50.8-60.8-92.2-60.8-44.5 0-82.2 28.9-95.3 69.1-10.8-5.4-23.3-8.4-36.1-8.4-44.5 0-80.9 35.7-81.5 80.2-36.8 14-62.6 44.7-62.6 80.4 0 47.4 45.2 86.1 101.9 88.3 17.6 35.5 54 60.1 96.5 60.1 33.7 0 63.7-15.6 83.4-39.8 14.7 22.4 40 37 68.7 37 31.8 0 59.4-18.1 73-44.5 6.3 2 13.3 2.9 20.3 2.9 29.6 0 55.1-18.5 65.1-44.7 4.1.2 8.4.2 12.6-.2 45.2-3.9 78.6-43.6 74.8-88.8z"/><g><path fill="#E0F4FC" d="M1050.7 557.5l-45.4 103.7 207.6 91 45.4-103.7-207.6-91zm4.7 113.4l-8.4-3.6 36.4-82.9 8.4 3.6-36.4 82.9zm41.6 18.3l-8.4-3.6 36.4-82.9 8.4 3.6-36.4 82.9zm41.3 18.3l-8.4-3.6 36.4-82.9 8.4 3.6-36.4 82.9zm41.6 18l-8.4-3.6 36.4-82.9 8.4 3.6-36.4 82.9z"/><path fill="#008CDB" d="M1050.7 557.5l207.6 91-45.4 103.7-207.6-91 45.4-103.7m4.7 113.4l36.4-82.9-8.4-3.6-36.4 82.9 8.4 3.6m41.6 18.3l36.4-82.9-8.4-3.6-36.4 82.9 8.4 3.6m41.3 18.3l36.4-82.9-8.4-3.6-36.4 82.9 8.4 3.6m41.6 18l36.4-82.9-8.4-3.6-36.4 82.9 8.4 3.6m-128.3-173.9c-2.7-.5-5.2.9-6.3 3.6l-45.4 103.7c-.7 1.4-.7 3.2 0 4.5.7 1.4 1.8 2.7 3.2 3.4l207.6 91c.5.2.9.5 1.6.5 1.1.2 2 0 3.2-.5 1.6-.7 2.7-1.8 3.4-3.2l45.4-103.7c1.4-3.2 0-6.6-3.2-7.9l-207.6-91c-.8-.2-1.5-.4-1.9-.4z"/></g><g><path fill="#004999" d="M1429.2 788.6l-60.3-60.3c-1.6-1.6-3.2-2.7-5-3.6 22.4-34.6 18.5-81.5-11.7-112-35-35-91.7-35-126.5 0-35 35-35 91.7 0 126.5 30.3 30.3 77.3 34.3 112 11.7.9 1.8 2 3.4 3.6 5l60.3 60.3c3.8 3.8 8.8 5.6 13.8 5.6s10.2-1.8 13.8-5.6c7.7-7.5 7.7-20 0-27.6z"/><path fill="#008CDB" d="M1415.5 825.4c-6.1 0-12-2.5-16.3-6.8l-60.3-60.3c-.9-.9-1.6-1.8-2.3-2.7-14.7 8.8-31.2 13.1-47.4 13.1-23.9 0-47.9-9.3-65.7-27.1-36.1-36.1-36.1-95.1 0-131.2 17.4-17.4 40.9-27.1 65.5-27.1 24.8 0 48.1 9.7 65.5 27.1 30 30 35.7 77 14 113.2.9.7 1.8 1.4 2.7 2.3l60.3 60.3c4.3 4.3 6.8 10.2 6.8 16.3 0 6.1-2.5 12-6.8 16.3-4.3 4.3-9.9 6.6-16 6.6zm-76.6-78.9l1.6 3.2c.7 1.6 1.8 2.9 2.9 4.1l60.3 60.3c3.2 3.2 7.2 4.7 11.5 4.7s8.6-1.8 11.5-4.7c3.2-3.2 4.7-7.2 4.7-11.5s-1.8-8.6-4.7-11.5l-60.3-60.3c-1.1-1.1-2.5-2.3-4.1-2.9l-3.2-1.6 2-2.9c21.9-33.9 17.2-79.3-11.3-108-16.3-16.3-37.9-25.3-61-25.3s-44.7 9-61 25.3c-33.7 33.7-33.7 88.3 0 122 28.7 28.7 73.9 33.4 108 11.3l3.1-2.2z"/><ellipse transform="rotate(-45.001 1288.91 676.15)" fill="#82D8F9" cx="1288.9" cy="676.1" rx="71.2" ry="71.2"/><path fill="#B4E5F9" d="M1338.7 747.2l21.5-21.5c3.2-3.2 16.3 9.7 13.1 13.1l-21.5 21.5c-3.4 3.2-16.5-9.9-13.1-13.1z"/><g><path fill="none" d="M1289.6 700.9c-2.7 0-4.1 2-4.1 5.9 0 3.8 1.4 5.9 4.1 5.9 2.7 0 4.1-2 4.1-5.9 0-3.8-1.3-5.9-4.1-5.9zM1255.5 613.3c.2 0 .5-.2.7-.2-.4 0-.4.2-.7.2zM1278.8 679.7c2.7 0 4.1-2 4.1-5.9 0-3.8-1.4-5.9-4.1-5.9-2.7 0-4.1 2-4.1 5.9 0 3.9 1.4 5.9 4.1 5.9z"/><path fill="none" d="M1226.9 685.6h-2s-4.3-4.7-4.3-12.9 4.3-12.9 4.3-12.9h2s-3.8 4.5-3.8 12.9 3.8 12.9 3.8 12.9zm62.7-25.8h2.7v21.5h-2.7v-21.5zm-5.8-26.4c1.1 0 1.6.7 1.6 1.6 0 .9-.7 1.6-1.6 1.6-1.1 0-1.6-.7-1.6-1.6 0-.9.4-1.6 1.6-1.6zm-1.2 12h2.7l-2 7.2h-1.8l1.1-7.2zm-10.3-18.6h2s4.3 4.7 4.3 12.9-4.3 12.9-4.3 12.9h-2s3.8-4.5 3.8-12.9-3.8-12.9-3.8-12.9zm-5.2 0h2s-3.8 4.5-3.8 12.9 3.8 12.9 3.8 12.9h-2s-4.3-4.7-4.3-12.9c0-8.1 4.3-12.9 4.3-12.9zm-17.2 6.8h2.7v-4.1l2.7-.9v5h4.3v2h-4.3v7.5c0 1.1 0 2 .2 2.5s.9.9 1.8.9c1.1 0 2-.5 2-.5h.2v2s-1.1.2-2.5.2c-1.8 0-3.2-.5-3.8-1.6-.7-.9-.7-2-.7-3.8v-7.5h-2.7v-1.7zm-18.8 26.2h2.5l-.9 7h-1.8v-7h.2zm7.9 54l-.2 2.3h-2l.2-2.3c-2.5-.2-4.3-.7-4.3-.7v-2h.2s1.8.7 4.3.9l.7-6.3c-2.7-.9-5.4-2-5.4-5.2 0-2.9 2.5-4.5 6.3-4.5l.2-2.3h2l-.2 2.3c2.3.2 3.8.7 3.8.7v2h-.2s-1.6-.7-3.8-.9l-.7 5.9c2.7.9 5.4 2 5.4 5.2-.2 3.3-2.6 4.7-6.3 4.9zm.7-32.3c-2.5 0-3.8-.7-3.8-.7v-2.3h.2s2 .9 3.8.9 2.7-.9 2.7-2c0-3.2-6.8-2.5-6.8-7.2 0-2.5 2-4.3 5.4-4.3 2 0 3.4.5 3.4.5v2.3h-.2s-1.8-.7-3.4-.7c-1.8 0-2.7.7-2.7 1.8 0 2.9 6.8 2 6.8 7.2.5 3.1-2 4.5-5.4 4.5zm7-33.2h-2.7v-21.5h2.7v21.5zm3.6 66.2c-1.1 0-1.6-.7-1.6-1.6 0-.9.7-1.6 1.6-1.6 1.1 0 1.6.7 1.6 1.6 0 .7-.7 1.6-1.6 1.6zm-1.8-40.7c0-4.7 2.5-7.7 7.2-7.7 1.8 0 3.4.5 3.4.5v2.3h-.2s-1.4-.7-2.9-.7c-2.9 0-4.5 2-4.5 5.6s1.6 5.6 4.5 5.6c1.6 0 2.9-.7 2.9-.7h.2v2.3s-1.4.5-3.4.5c-4.7 0-7.2-2.9-7.2-7.7zm14.7 40.9c-2.3 0-3.8-.9-4.3-2.7v7.9h-2.7v-20.3h2l.7 2.7c.5-1.8 2.3-2.9 4.5-2.9 3.8 0 6.3 2.9 6.3 7.7-.2 4.4-2.4 7.6-6.5 7.6zm7-46.1s-.7-.2-1.4-.2c-3.4 0-3.4 2.7-3.4 4.1v8.8h-2.7v-14.9h2l.5 2.9c.5-2.5 2.5-2.9 4.5-2.9h.5v2.2zm8.6-2.7c4.3 0 7 2.7 7 7.7s-2.5 7.9-7 7.9c-4.3 0-7-2.7-7-7.7s2.5-7.9 7-7.9zm2.3 35.7s-.7-.2-1.4-.2c-3.4 0-3.4 2.7-3.4 4.1v8.8h-2.7v-14.9h2l.5 2.9c.5-2.5 2.5-2.9 4.5-2.9h.5v2.2zm8.5 13.1c-4.3 0-7-2.7-7-7.7s2.5-7.9 7-7.9c4.3 0 7 2.7 7 7.7s-2.7 7.9-7 7.9zm61.3-48.6c1.8 0 3.4.5 3.4.5v2.3h-.2s-1.4-.7-2.9-.7c-2.9 0-4.5 2-4.5 5.6s1.6 5.6 4.5 5.6c1.6 0 2.9-.7 2.9-.7h.2v2.3s-1.4.5-3.4.5c-4.5 0-7.2-2.9-7.2-7.7.2-4.7 2.6-7.7 7.2-7.7zm-12.5-5.8c1.1 0 1.6.7 1.6 1.6 0 .9-.7 1.6-1.6 1.6-1.1 0-1.6-.7-1.6-1.6.1-1 .7-1.6 1.6-1.6zm1.4 6.1v14.9h-2.7v-14.9h2.7zm-33.9 11.7c1.1 0 1.6.7 1.6 1.6 0 .9-.7 1.6-1.6 1.6-1.1 0-1.6-.7-1.6-1.6-.2-.9.5-1.6 1.6-1.6zm-5.4-65.7h2.7l-2 7.2h-1.8l1.1-7.2zm-3.4 47.4h2.7v21.5h-2.7v-21.5zm11.7 54.4l-3.8-6.1-3.8 6.1h-2.7l5.2-7.7-5-7.2h3.2l3.4 5.6 3.6-5.6h2.7l-5 7.2 5.2 7.7h-3zm13.6-.2c-1.4 3.6-2.3 5.9-5.9 5.9-1.1 0-2-.2-2-.2v-2h.2s.9.5 1.8.5c1.8 0 2.5-1.6 3.4-4.1l-5.9-14.5h2.9l4.3 11.3 4.1-11.3h2.5l-5.4 14.4zm6.8-44.5c-.5-.7-1.4-1.4-2.7-1.4-2.9 0-3.2 2.5-3.2 3.8v9.3h-2.7v-8.8c0-1.4 0-2.3-.5-2.9-.5-.7-1.4-1.4-2.7-1.4-2.9 0-3.2 2.5-3.2 3.8v9.3h-2.7v-14.9h2l.5 2.5c.5-1.6 1.6-2.9 4.3-2.9 2.7 0 3.8 1.1 4.5 3.2.7-2 2-3.2 4.5-3.2 2.3 0 3.4.9 4.1 2 .9 1.1.9 2.7.9 4.5v8.8h-2.7v-8.8c.3-1.3.3-2.2-.4-2.9zm8.1 49h-2s-4.3-4.7-4.3-12.9 4.3-12.9 4.3-12.9h2s-3.8 4.5-3.8 12.9 3.8 12.9 3.8 12.9zm11.3-16.9h-4.3v7.5c0 1.1 0 2 .2 2.5.2.7.9.9 1.8.9 1.1 0 2-.5 2-.5h.2v2s-1.1.2-2.5.2c-1.8 0-3.2-.5-3.8-1.6-.7-.9-.7-2-.7-3.8v-7.5h-2.7v-2h2.7v-4.1l2.7-.9v5h4.3v2.3z"/><path fill="none" d="M1262.8 701.1c-2.9 0-4.1 2.5-4.1 5.9 0 3.4 1.1 5.6 4.1 5.6 2.9 0 4.1-2.5 4.1-5.9-.1-3.3-1.2-5.6-4.1-5.6zM1234.8 700.2c0 1.6 1.4 2.3 3.2 2.9l.5-5.4c-2.4.3-3.7 1-3.7 2.5zM1239.5 706.1l-.5 5.6c2.7 0 3.6-1.1 3.6-2.5.1-1.5-1.3-2.4-3.1-3.1z"/><path fill="#008CDB" d="M1260.3 611c-1.4.7-2.9 1.4-4.3 2-.2.2-.5.2-.7.2-1.1.7-2.3 1.4-3.6 2 .7.2 1.1.2 2 .2 3.4.1 5.7-1.4 6.6-4.4zM1276.8 615.3v-8.8-.5c-.9.2-1.8.2-2.7.5v8.8h2.7zM1267.3 615.3v-7c-.9.2-1.8.7-2.7.9v6.1h2.7zM1285.1 619.6h2s-3.8-4.5-3.8-12.9v-1.6c-.9 0-1.8.2-2.7.2v1.4c.2 8.2 4.5 12.9 4.5 12.9zM1290.3 619.6h2s4.3-4.7 4.3-12.9v-1.4c-.9 0-1.8-.2-2.7-.2v1.6c0 8.4-3.6 12.9-3.6 12.9zM1303.2 612.4h-2.7l-1.1 7.2h1.8zM1224.4 646.3c-.2.7-.7 1.4-.9 2 .5 0 .9-.2.9-.2v-1.8zM1228.2 646.7c.7 1.1 2 1.8 4.1 1.8 2.5 0 3.8-1.1 4.3-2.9l.5 2.5h2v-14.9h-2.7v9.3c0 1.4-.2 3.8-3.4 3.8-1.4 0-2.3-.5-2.7-1.4-.5-.7-.7-1.6-.7-2.9v-5.6c-.9 1.4-1.8 2.7-2.7 4.3v1.4c.4 1.9.4 3.5 1.3 4.6zM1244 626.8h2.7v21.5h-2.7zM1252.6 643.1c0 1.8 0 2.9.7 3.8.7 1.1 2 1.6 3.8 1.6 1.4 0 2.5-.2 2.5-.2V646h-.2s-.9.5-2 .5c-.9 0-1.4-.2-1.8-.9s-.2-1.4-.2-2.5v-7.5h4.3v-2h-4.3v-5l-2.7.9v4.1h-2.7v2h2.7v7.5zM1269.1 652.6s-3.8-4.5-3.8-12.9 3.8-12.9 3.8-12.9h-2s-4.3 4.7-4.3 12.9 4.3 12.9 4.3 12.9h2zM1274.3 652.6s4.3-4.7 4.3-12.9-4.3-12.9-4.3-12.9h-2s3.8 4.5 3.8 12.9-3.8 12.9-3.8 12.9h2zM1283.8 636.5c1.1 0 1.6-.7 1.6-1.6 0-.9-.7-1.6-1.6-1.6-1.1 0-1.6.7-1.6 1.6 0 1 .4 1.6 1.6 1.6zM1285.1 645.4h-2.5l-1.3 7.2h1.8zM1225 659.8s-4.3 4.7-4.3 12.9c0 8.1 4.3 12.9 4.3 12.9h2s-3.8-4.5-3.8-12.9 3.8-12.9 3.8-12.9h-2zM1233.6 659.8h-2.5v7h1.8zM1238.6 670c0-1.1.9-1.8 2.7-1.8 1.6 0 3.4.7 3.4.7h.2v-2.3s-1.6-.5-3.4-.5c-3.4 0-5.4 1.6-5.4 4.3 0 4.7 6.8 3.8 6.8 7.2 0 1.1-.9 2-2.7 2s-3.8-.9-3.8-.9h-.5v2.3s1.6.7 3.8.7c3.2 0 5.6-1.4 5.6-4.3.3-5.4-6.7-4.5-6.7-7.4zM1258.9 678.8c-.2 0-1.6.7-3.2.7-2.9 0-4.5-2.3-4.5-5.6 0-3.4 1.6-5.6 4.5-5.6 1.6 0 2.9.7 2.9.7h.2v-2.3s-1.4-.5-3.4-.5c-4.5 0-7.2 2.9-7.2 7.7 0 4.7 2.5 7.7 7.2 7.7 2 0 3.4-.5 3.4-.5l.1-2.3zM1265.3 669.3l-.5-2.9h-2v14.9h2.7v-8.8c0-1.4 0-4.1 3.4-4.1.7 0 1.4.2 1.4.2v-2.5h-.5c-2.1 0-4.1.7-4.5 3.2zM1278.8 681.7c4.5 0 7-2.9 7-7.9s-2.5-7.7-7-7.7-7 2.9-7 7.9c0 4.8 2.7 7.7 7 7.7zm0-13.8c2.7 0 4.1 2 4.1 5.9 0 3.8-1.4 5.9-4.1 5.9-2.7 0-4.1-2-4.1-5.9 0-3.8 1.4-5.9 4.1-5.9zM1289.6 659.8h2.7v21.5h-2.7zM1297.1 659.8h2.7v21.5h-2.7zM1305.9 681.5c1.1 0 1.6-.7 1.6-1.6 0-.9-.7-1.6-1.6-1.6-1.1 0-1.6.7-1.6 1.6-.2.7.5 1.6 1.6 1.6zM1332.6 681.3v-8.8c0-1.8 0-3.4-.9-4.5-.7-.9-1.8-2-4.1-2-2.5 0-3.8 1.1-4.5 3.2-.7-1.8-1.8-3.2-4.5-3.2s-3.8 1.4-4.3 2.9l-.5-2.5h-2v14.9h2.7V672c0-1.4.2-3.8 3.2-3.8 1.4 0 2.3.5 2.7 1.4.5.9.5 1.6.5 2.9v8.8h2.7V672c0-1.4.2-3.8 3.2-3.8 1.4 0 2.3.5 2.7 1.4s.5 1.6.5 2.9v8.8h2.6zM1337.1 666.4h2.7v14.9h-2.7zM1338.4 663.6c1.1 0 1.6-.7 1.6-1.6 0-.9-.7-1.6-1.6-1.6-1.1 0-1.6.7-1.6 1.6.1.7.7 1.6 1.6 1.6zM1350.9 681.5c2 0 3.4-.5 3.4-.5v-2.3h-.2s-1.4.7-2.9.7c-2.9 0-4.5-2.3-4.5-5.6 0-3.4 1.6-5.6 4.5-5.6 1.6 0 2.9.7 2.9.7h.2v-2.3s-1.4-.5-3.4-.5c-4.5 0-7.2 2.9-7.2 7.7.2 4.8 2.6 7.7 7.2 7.7zM1358.1 681.3h2c.5-5 .2-9.9-.5-14.9h-1.4v14.9h-.1zM1229.1 692.8h-2s-3.4 3.8-4.1 10.2c.7 1.8 1.6 3.8 2.5 5.6 0-.9-.2-1.8-.2-2.7.2-8.6 3.8-13.1 3.8-13.1zM1239.7 703.9l.7-5.9c2.3.2 3.8.9 3.8.9h.2v-2s-1.6-.5-3.8-.7l.2-2.3h-2l-.2 2.3c-3.8 0-6.3 1.6-6.3 4.5 0 3.2 2.7 4.1 5.4 5.2l-.7 6.3c-2.5-.2-4.3-.9-4.3-.9h-.2v2s1.8.7 4.3.7l-.2 2.3h2l.2-2.3c3.6-.2 6.3-1.6 6.3-4.7 0-3.4-2.7-4.5-5.4-5.4zm-1.6-.7c-1.8-.7-3.2-1.4-3.2-2.9 0-1.4 1.1-2.3 3.6-2.3l-.4 5.2zm.9 8.6l.5-5.6c1.8.7 3.2 1.6 3.2 3.2 0 1.2-.9 2.4-3.7 2.4zM1250.3 711.1c-1.1 0-1.6.7-1.6 1.6 0 .9.7 1.6 1.6 1.6 1.1 0 1.6-.7 1.6-1.6 0-.9-.7-1.6-1.6-1.6zM1263.4 699.1c-2.5 0-4.1 1.1-4.5 2.9l-.7-2.7h-2v20.3h2.7v-7.9c.7 1.8 2 2.7 4.3 2.7 4.1 0 6.6-3.2 6.6-7.9-.3-4.5-2.5-7.4-6.4-7.4zm-.6 13.6c-2.9 0-4.1-2.5-4.1-5.6 0-3.4 1.1-5.9 4.1-5.9 2.9 0 4.1 2.5 4.1 5.6-.1 3.4-1.2 5.9-4.1 5.9zM1276.1 702.3l-.5-2.9h-2v14.9h2.7v-8.8c0-1.4 0-4.1 3.4-4.1.7 0 1.4.2 1.4.2v-2.5h-.5c-2 0-4.1.7-4.5 3.2zM1289.6 698.9c-4.5 0-7 2.9-7 7.9s2.5 7.7 7 7.7 7-2.9 7-7.9c0-4.8-2.7-7.7-7-7.7zm0 13.8c-2.7 0-4.1-2-4.1-5.9 0-3.8 1.4-5.9 4.1-5.9 2.7 0 4.1 2 4.1 5.9 0 3.8-1.3 5.9-4.1 5.9zM1311.8 699.3h-3l-3.3 5.7-3.7-5.7h-3.1l5 7.3-5.2 7.6h2.7l3.8-5.8 3.8 5.8h3.2l-5.2-7.6zM1321.5 710.6l-4.3-11.3h-2.9l5.9 14.5c-.9 2.5-1.8 4.1-3.4 4.1-.9 0-1.8-.5-1.8-.5h-.2v2s.9.2 2 .2c3.6 0 4.7-2.3 5.9-5.9l5.6-14.7h-2.5l-4.3 11.6zM1335.3 692.8s-4.3 4.7-4.3 12.9c0 8.1 4.3 12.9 4.3 12.9h2s-3.8-4.5-3.8-12.9 3.8-12.9 3.8-12.9h-2zM1344.3 694.6l-2.7.9v4.1h-2.7v2h2.7v7.5c0 1.8 0 2.9.7 3.8.7 1.1 2 1.6 3.8 1.6 1.4 0 2.5-.2 2.5-.2v-2h-.2s-.9.5-2 .5c-.9 0-1.4-.2-1.8-.9-.2-.7-.2-1.4-.2-2.5v-7.5h4.3v-2h-4.3v-5.3zM1355.2 701.8v-9h-2.7v15.6c1.4-2.7 2.7-5.6 3.6-8.6-.5.7-.9 1.3-.9 2z"/></g></g><path fill="#006BBA" d="M845.6 757.2c0 .9-.9 1.4-1.6 1.4h-.2c-.9-.2-1.6-.9-1.4-1.8.2-2.3.5-4.3.5-6.6 0-27.8-22.6-50.6-50.6-50.6-11.1 0-21.5 3.4-30.3 9.9h-.2c-.2 0-.2.2-.5.2h-.2c-.5 0-.7 0-.9-.2-.2 0-.5-.2-.5-.5-.2-.2-.2-.5-.2-.7-7.2-29.6-33.7-50.4-64.4-50.4-28 0-52 17.4-61.7 41.8-.5.9-1.4 1.4-2.3.9-.7-.5-1.1-1.4-.9-2 10.2-25.8 35.2-44 64.6-44 31.4 0 58.5 20.8 66.9 50.6 8.8-5.9 19.2-9.3 30.3-9.3 29.6 0 53.8 24.2 53.8 53.8.2 2.9.2 5.2-.2 7.5z"/></svg>