<?xml version="1.0" encoding="utf-8"?><!DOCTYPE svg PUBLIC "-//W3C//DTD SVG 1.1//EN" "http://www.w3.org/Graphics/SVG/1.1/DTD/svg11.dtd"><svg version="1.1" xmlns="http://www.w3.org/2000/svg" xmlns:xlink="http://www.w3.org/1999/xlink" x="0px" y="0px" viewBox="0 0 100 63.75" enable-background="new 0 0 100 51" xml:space="preserve"><rect y="10" width="100" height="4"/><rect y="37" width="100" height="4"/><rect x="4" y="16" width="8" height="19"/><rect x="18" y="16" width="8" height="19"/><rect x="32" y="16" width="8" height="19"/><rect x="46" y="16" width="8" height="19"/><rect x="60" y="16" width="8" height="19"/><rect x="74" y="16" width="8" height="19"/><rect x="88" y="16" width="8" height="19"/><rect x="4" width="8" height="8"/><rect x="18" width="8" height="8"/><rect x="32" width="8" height="8"/><rect x="46" width="8" height="8"/><rect x="60" width="8" height="8"/><rect x="74" width="8" height="8"/><rect x="88" width="8" height="8"/><rect x="4" y="43" width="8" height="8"/><rect x="18" y="43" width="8" height="8"/><rect x="32" y="43" width="8" height="8"/><rect x="46" y="43" width="8" height="8"/><rect x="60" y="43" width="8" height="8"/><rect x="74" y="43" width="8" height="8"/><rect x="88" y="43" width="8" height="8"/><text x="0" y="66" fill="#000000" font-size="5px" font-weight="bold" font-family="'Helvetica Neue', Helvetica, Arial-Unicode, Arial, Sans-serif">Created by Edward Boatman</text><text x="0" y="71" fill="#000000" font-size="5px" font-weight="bold" font-family="'Helvetica Neue', Helvetica, Arial-Unicode, Arial, Sans-serif">from the Noun Project</text></svg>