<?xml version="1.0" encoding="utf-8"?>
<!-- Svg Vector Icons : http://www.onlinewebfonts.com/icon -->
<!DOCTYPE svg PUBLIC "-//W3C//DTD SVG 1.1//EN" "http://www.w3.org/Graphics/SVG/1.1/DTD/svg11.dtd">
<svg version="1.1" xmlns="http://www.w3.org/2000/svg" xmlns:xlink="http://www.w3.org/1999/xlink" x="0px" y="0px" viewBox="0 0 1000 1000" enable-background="new 0 0 1000 1000" xml:space="preserve">
<metadata> Svg Vector Icons : http://www.onlinewebfonts.com/icon </metadata>
<g><g><path d="M613.5,482.7c15.4,0,27.9-12.5,27.9-27.9c0-6.8-2.6-13.4-7.2-18.5c-10.3-11.4-25-18-40.4-18H45.3c-5.1,0-9.2,4.1-9.2,9.2c0,5.1,4.1,9.2,9.2,9.2h36.8l7.4,27.6H51.8c-5.1,0-9.2,4.1-9.2,9.2c0,5.1,4.1,9.2,9.2,9.2L613.5,482.7L613.5,482.7z M290.3,436.7l7.4,27.6h-87.9l-7.4-27.6H290.3z M388.2,436.7l7.4,27.6h-78.8l-7.4-27.6H388.2z M499.4,436.7l7.4,27.6h-92.2l-7.4-27.6H499.4z M620.5,448.6c1.6,1.8,2.5,3.9,2.5,6.2c0,4.7-3.5,9.5-9.5,9.5h-87.6l-7.4-27.6h75.3C604,436.7,613.7,441,620.5,448.6z M101.2,436.7h82.2l7.4,27.6h-82.2L101.2,436.7z"/><path d="M946.1,454.4l-122.8-47.2c-43.2-16.6-88.7-25.1-135-25.1H19.2c-5.1,0-9.2,4.1-9.2,9.2c0,5.1,4.1,9.2,9.2,9.2h669.1c38,0,75.4,6,111.4,17.8h-96c-9.6,0-17.8,6.1-20.6,15.3c-2.8,9.1,0.7,18.9,8.7,24.2c24.5,16.4,53.1,25,82.6,25h182.3c9.3,9.3,15,22,15,35.6c0,27.6-22.5,50.1-50.1,50.1H856c-4-13.1-16.1-22.6-30.5-22.6H678.6c-14.3,0-26.5,9.5-30.5,22.6H319.8c-4-13.1-16.1-22.6-30.5-22.6H142.4c-14.3,0-26.5,9.5-30.5,22.6H57.2c-5.1,0-9.2,4.1-9.2,9.2c0,5.1,4.1,9.2,9.2,9.2h62.6c5.1,0,9.2-4.1,9.2-9.2c0-6.7,5-12.3,11.5-13.2c-0.9,3.4-1.3,7-1.3,10.6c0,23.6,19.2,42.9,42.9,42.9c13.6,0,25.8-6.4,33.6-16.4c7.9,10,20,16.4,33.6,16.4c23.6,0,42.9-19.2,42.9-42.9c0-3.7-0.5-7.2-1.4-10.7c6.7,0.7,12,6.4,12,13.3c0,5.1,4.1,9.2,9.2,9.2H656c5.1,0,9.2-4.1,9.2-9.2c0-6.8,5.1-12.4,11.7-13.3c-0.9,3.4-1.3,7-1.3,10.7c0,23.6,19.2,42.9,42.9,42.9c13.6,0,25.8-6.4,33.6-16.4c7.9,10,20,16.4,33.6,16.4c23.6,0,42.9-19.2,42.9-42.9c0-3.6-0.5-7.2-1.3-10.7c6.6,0.8,11.8,6.5,11.8,13.3c0,5.1,4.1,9.2,9.2,9.2h73.3c37.8,0,68.6-30.8,68.6-68.6C990,490.2,972.3,464.5,946.1,454.4z M702,442.4c-1.6-1.1-1.6-2.5-1.3-3.5c0.3-1,1.1-2.2,3-2.2h145.2l71.8,27.6H774.3C748.5,464.3,723.5,456.7,702,442.4z M181.9,599.5c-13.5,0-24.4-11-24.4-24.4c0-3.8,0.9-7.4,2.5-10.8h43.9c1.6,3.3,2.5,7,2.5,10.8C206.4,588.5,195.4,599.5,181.9,599.5z M249.2,599.5c-13.5,0-24.4-11-24.4-24.4c0-3.8,0.9-7.4,2.5-10.8h43.9c1.6,3.3,2.5,7,2.5,10.8C273.7,588.5,262.7,599.5,249.2,599.5z M718.4,599.5c-13.5,0-24.4-11-24.4-24.4c0-3.8,0.9-7.4,2.5-10.8h43.9c1.6,3.3,2.5,7,2.5,10.8C742.8,588.5,731.8,599.5,718.4,599.5z M785.7,599.5c-13.5,0-24.4-11-24.4-24.4c0-3.8,0.9-7.4,2.5-10.8h43.9c1.6,3.3,2.5,7,2.5,10.8C810.1,588.5,799.1,599.5,785.7,599.5z"/></g><g></g><g></g><g></g><g></g><g></g><g></g><g></g><g></g><g></g><g></g><g></g><g></g><g></g><g></g><g></g></g>
</svg>