<?xml version="1.0" encoding="utf-8"?>
<!-- Generator: Adobe Illustrator 15.0.0, SVG Export Plug-In . SVG Version: 6.00 Build 0)  -->
<!DOCTYPE svg PUBLIC "-//W3C//DTD SVG 1.1//EN" "http://www.w3.org/Graphics/SVG/1.1/DTD/svg11.dtd">
<svg version="1.1" id="Layer_1" xmlns="http://www.w3.org/2000/svg" xmlns:xlink="http://www.w3.org/1999/xlink" x="0px" y="0px"
	 width="220px" height="220px" viewBox="0 0 220 220" enable-background="new 0 0 220 220" xml:space="preserve">
<g>
	<g>
		<path fill="none" stroke="#0D6BB3" stroke-width="8" stroke-miterlimit="8" d="M188.588,101.611
			c13.821,5.383,23.469,18.681,23.469,34.513c0,20.265-17.035,37.045-37.934,37.045c-128.251,0-128.251,0-128.251,0
			c-20.893,0-37.929-16.78-37.929-37.045c0-15.517,9.321-28.499,22.821-34.197l0,0c0-0.95,0-2.217,0-3.166
			c0-28.814,23.465-51.93,52.714-51.93c19.932,0,36.967,10.449,45.965,26.281c5.787-2.532,11.896-4.118,18.324-4.118
			C167.693,68.996,184.41,82.929,188.588,101.611L188.588,101.611z"/>
	</g>
	<g>
		<circle fill="none" stroke="#0D6BB3" stroke-width="6" stroke-miterlimit="8" cx="110" cy="121.33" r="35.5"/>
		<ellipse fill="none" stroke="#0D6BB3" stroke-width="6" stroke-miterlimit="8" cx="110.186" cy="121.33" rx="14.99" ry="35.174"/>
		<line fill="none" stroke="#0D6BB3" stroke-width="6" stroke-miterlimit="8" x1="76.214" y1="110.42" x2="143.167" y2="110.42"/>
		<line fill="none" stroke="#0D6BB3" stroke-width="6" stroke-miterlimit="8" x1="75.214" y1="132.071" x2="142.167" y2="132.071"/>
	</g>
</g>
</svg>
